<?xml version="1.0" encoding="UTF-8" standalone="no"?>
<!-- Created with Inkscape (http://www.inkscape.org/) -->

<svg
   width="84.711769mm"
   height="19.543087mm"
   viewBox="0 0 84.711769 19.543087"
   version="1.1"
   id="svg5"
   sodipodi:docname="text_stretch_portrait.svg"
   inkscape:version="1.2.2 (b0a8486541, 2022-12-01)"
   xmlns:inkscape="http://www.inkscape.org/namespaces/inkscape"
   xmlns:sodipodi="http://sodipodi.sourceforge.net/DTD/sodipodi-0.dtd"
   xmlns="http://www.w3.org/2000/svg"
   xmlns:svg="http://www.w3.org/2000/svg">
  <sodipodi:namedview
     id="namedview1853"
     pagecolor="#ffffff"
     bordercolor="#000000"
     borderopacity="0.25"
     inkscape:showpageshadow="2"
     inkscape:pageopacity="0.0"
     inkscape:pagecheckerboard="0"
     inkscape:deskcolor="#d1d1d1"
     inkscape:document-units="mm"
     showgrid="false"
     inkscape:zoom="4.0728304"
     inkscape:cx="160.208"
     inkscape:cy="36.829425"
     inkscape:window-width="1920"
     inkscape:window-height="1035"
     inkscape:window-x="0"
     inkscape:window-y="25"
     inkscape:window-maximized="1"
     inkscape:current-layer="svg5" />
  <defs
     id="defs2">
    <rect
       x="103.17877"
       y="43.098064"
       width="356.27963"
       height="118.44431"
       id="rect119" />
  </defs>
  <g
     id="layer1"
     transform="rotate(-90,8.7486287,17.845475)">
    <g
       aria-label="stretch"
       transform="matrix(0,0.26458333,-0.26458333,0,42.570429,-19.593345)"
       id="text117"
       style="font-size:100px;white-space:pre;shape-inside:url(#rect119);display:inline">
      <path
         d="m 149.48651,93.315059 -7.52841,2.130682 q -0.71023,-1.882102 -2.09517,-3.65767 -1.34944,-1.81108 -3.69319,-2.982955 -2.34375,-1.171875 -6.00142,-1.171875 -5.0071,0 -8.34517,2.308239 -3.30255,2.272727 -3.30255,5.788352 0,3.125 2.27272,4.936078 2.27273,1.81108 7.10228,3.01847 l 8.09659,1.98863 q 7.31534,1.77557 10.90199,5.43324 3.58664,3.62216 3.58664,9.33949 0,4.6875 -2.69886,8.38068 -2.66335,3.69318 -7.45739,5.82387 -4.79403,2.13068 -11.15056,2.13068 -8.34517,0 -13.81392,-3.62216 -5.46875,-3.62216 -6.92472,-10.58239 l 7.95454,-1.98863 q 1.13637,4.40341 4.29688,6.60511 3.19602,2.2017 8.34517,2.2017 5.85938,0 9.30398,-2.48579 3.48011,-2.52131 3.48011,-6.03693 0,-2.84091 -1.98864,-4.75853 -1.98863,-1.95312 -6.10795,-2.91193 l -9.09091,-2.13068 q -7.4929,-1.77557 -11.00852,-5.50426 -3.48012,-3.7642 -3.48012,-9.410512 0,-4.616477 2.59233,-8.167613 2.62785,-3.551137 7.13779,-5.575284 4.54545,-2.024148 10.29829,-2.024148 8.09659,0 12.71307,3.551136 4.65199,3.551137 6.60512,9.375 z"
         style="font-family:Inter;-inkscape-font-specification:Inter;fill:#ffff00"
         id="path857" />
      <path
         d="m 186.84453,81.09915 v 7.102273 H 158.57748 V 81.09915 Z M 166.81612,68.030968 h 8.38068 V 120.0196 q 0,3.55114 1.02983,5.32671 1.06534,1.74006 2.69887,2.34375 1.66903,0.56818 3.51562,0.56818 1.38494,0 2.27273,-0.14204 0.88778,-0.17756 1.42045,-0.2841 l 1.70455,7.52841 q -0.85227,0.31961 -2.37926,0.63921 -1.52699,0.35511 -3.87074,0.35511 -3.55114,0 -6.96023,-1.52699 -3.37358,-1.52699 -5.61079,-4.65199 -2.20171,-3.125 -2.20171,-7.88352 z"
         style="font-family:Inter;-inkscape-font-specification:Inter;fill:#ffff00"
         id="path859" />
      <path
         d="M 199.48654,135.6446 V 81.09915 h 8.09659 v 8.238636 h 0.56818 q 1.49148,-4.048295 5.39773,-6.569602 3.90625,-2.521307 8.80682,-2.521307 0.92329,0 2.30824,0.03551 1.38494,0.03551 2.09517,0.106534 v 8.522727 q -0.42614,-0.106534 -1.95313,-0.319602 -1.49147,-0.24858 -3.16051,-0.24858 -3.97727,0 -7.10227,1.669034 -3.08949,1.633523 -4.90057,4.545455 -1.77557,2.87642 -1.77557,6.569603 v 34.51704 z"
         style="font-family:Inter;-inkscape-font-specification:Inter;fill:#ffff00"
         id="path861" />
      <path
         d="m 257.86726,136.78097 q -7.88353,0 -13.60086,-3.48012 -5.68181,-3.51562 -8.7713,-9.80113 -3.05398,-6.32102 -3.05398,-14.70171 0,-8.38068 3.05398,-14.772724 3.08949,-6.427556 8.59375,-10.014204 5.53977,-3.622159 12.92613,-3.622159 4.26137,0 8.4162,1.420454 4.15483,1.420455 7.56392,4.616478 3.40909,3.160511 5.43324,8.380681 2.02414,5.220174 2.02414,12.855114 v 3.55114 h -42.04545 v -7.24432 h 33.52273 q 0,-4.616479 -1.84659,-8.238638 -1.81108,-3.622159 -5.18466,-5.71733 -3.33807,-2.09517 -7.88353,-2.09517 -5.0071,0 -8.66477,2.485795 -3.62216,2.450284 -5.57528,6.392046 -1.95313,3.941757 -1.95313,8.451707 v 4.82954 q 0,6.17898 2.13068,10.47586 2.1662,4.26136 6.00142,6.49857 3.83523,2.20171 8.91336,2.20171 3.30255,0 5.96591,-0.9233 2.69886,-0.9588 4.65198,-2.84091 1.95313,-1.91761 3.01847,-4.75852 l 8.09659,2.27273 q -1.27841,4.11932 -4.29687,7.24432 -3.01847,3.08949 -7.45739,4.82954 -4.43892,1.70455 -9.97869,1.70455 z"
         style="font-family:Inter;-inkscape-font-specification:Inter;fill:#ffff00"
         id="path863" />
      <path
         d="m 316.95813,81.09915 v 7.102273 H 288.69109 V 81.09915 Z M 296.92972,68.030968 h 8.38068 V 120.0196 q 0,3.55114 1.02983,5.32671 1.06534,1.74006 2.69887,2.34375 1.66903,0.56818 3.51562,0.56818 1.38495,0 2.27273,-0.14204 0.88778,-0.17756 1.42045,-0.2841 l 1.70455,7.52841 q -0.85227,0.31961 -2.37926,0.63921 -1.52699,0.35511 -3.87074,0.35511 -3.55114,0 -6.96023,-1.52699 -3.37358,-1.52699 -5.61079,-4.65199 -2.20171,-3.125 -2.20171,-7.88352 z"
         style="font-family:Inter;-inkscape-font-specification:Inter;fill:#ffff00"
         id="path865" />
      <path
         d="m 351.19103,136.78097 q -7.67046,0 -13.21023,-3.62216 -5.53977,-3.62216 -8.52273,-9.97869 -2.98295,-6.35654 -2.98295,-14.52415 0,-8.30966 3.05397,-14.666195 3.08949,-6.392045 8.59375,-9.978693 5.53978,-3.622159 12.92614,-3.622159 5.75284,0 10.36932,2.130682 4.61648,2.130681 7.56392,5.965909 2.94744,3.835227 3.65767,8.948863 h -8.38068 q -0.95881,-3.728693 -4.26137,-6.605113 -3.26704,-2.911932 -8.80681,-2.911932 -4.90057,0 -8.59375,2.556818 -3.65767,2.521307 -5.71733,7.137784 -2.02415,4.580966 -2.02415,10.759946 0,6.32102 1.98864,11.00852 2.02414,4.6875 5.68181,7.27983 3.69319,2.59233 8.66478,2.59233 3.26704,0 5.93039,-1.13636 2.66336,-1.13637 4.50995,-3.26705 1.84659,-2.13068 2.62784,-5.11364 h 8.38068 q -0.71023,4.82955 -3.51563,8.70029 -2.76988,3.83523 -7.35085,6.10795 -4.54545,2.23722 -10.58238,2.23722 z"
         style="font-family:Inter;-inkscape-font-specification:Inter;fill:#ffff00"
         id="path867" />
      <path
         d="m 393.23653,102.8321 v 32.8125 h -8.38068 V 62.917332 h 8.38068 v 26.704545 h 0.71023 q 1.91761,-4.225852 5.75284,-6.711647 3.87074,-2.521307 10.29829,-2.521307 5.57529,0 9.76563,2.237216 4.19034,2.201704 6.49858,6.78267 2.34375,4.545455 2.34375,11.576701 v 34.65909 h -8.38068 v -34.0909 q 0,-6.498584 -3.37358,-10.04972 -3.33807,-3.586648 -9.26847,-3.586648 -4.11932,0 -7.38636,1.740057 -3.23154,1.740057 -5.11364,5.078125 -1.84659,3.338068 -1.84659,8.096586 z"
         style="font-family:Inter;-inkscape-font-specification:Inter;fill:#ffff00"
         id="path869" />
    </g>
  </g>
</svg>
