<?xml version="1.0" encoding="UTF-8" standalone="no"?>
<!-- Created with Inkscape (http://www.inkscape.org/) -->

<svg
   width="30.404512mm"
   height="19.84375mm"
   viewBox="0 0 30.404512 19.84375"
   version="1.1"
   id="svg5"
   sodipodi:docname="text_hill_portrait.svg"
   inkscape:export-filename="text_user.svg"
   inkscape:export-xdpi="96"
   inkscape:export-ydpi="96"
   inkscape:version="1.2.2 (b0a8486541, 2022-12-01)"
   xmlns:inkscape="http://www.inkscape.org/namespaces/inkscape"
   xmlns:sodipodi="http://sodipodi.sourceforge.net/DTD/sodipodi-0.dtd"
   xmlns="http://www.w3.org/2000/svg"
   xmlns:svg="http://www.w3.org/2000/svg">
  <sodipodi:namedview
     id="namedview1853"
     pagecolor="#ffffff"
     bordercolor="#000000"
     borderopacity="0.25"
     inkscape:showpageshadow="2"
     inkscape:pageopacity="0.0"
     inkscape:pagecheckerboard="0"
     inkscape:deskcolor="#d1d1d1"
     inkscape:document-units="mm"
     showgrid="false"
     inkscape:zoom="7.9761645"
     inkscape:cx="55.352419"
     inkscape:cy="51.277779"
     inkscape:window-width="1920"
     inkscape:window-height="1035"
     inkscape:window-x="0"
     inkscape:window-y="25"
     inkscape:window-maximized="1"
     inkscape:current-layer="svg5" />
  <defs
     id="defs2">
    <rect
       x="103.17877"
       y="43.098064"
       width="356.27963"
       height="118.44431"
       id="rect119" />
  </defs>
  <g
     id="layer1"
     transform="translate(-1.0002537,-32.456037)">
    <g
       aria-label="hill"
       transform="matrix(0.26458333,0,0,0.26458333,-28.328846,16.598379)"
       id="text117"
       style="font-size:100px;white-space:pre;shape-inside:url(#rect119);display:inline">
      <path
         d="m 119.23082,102.8321 v 32.8125 h -8.38068 V 62.917332 h 8.38068 v 26.704545 h 0.71023 q 1.91761,-4.225852 5.75284,-6.711647 3.87074,-2.521307 10.2983,-2.521307 5.57528,0 9.76562,2.237216 4.19034,2.201704 6.49858,6.78267 2.34375,4.545455 2.34375,11.576701 v 34.65909 h -8.38068 v -34.0909 q 0,-6.498584 -3.37358,-10.04972 -3.33807,-3.586648 -9.26847,-3.586648 -4.11931,0 -7.38636,1.740057 -3.23153,1.740057 -5.11364,5.078125 -1.84659,3.338068 -1.84659,8.096586 z"
         style="font-family:Inter;-inkscape-font-specification:Inter;fill:#b60000"
         id="path857" />
      <path
         d="M 169.94114,135.6446 V 81.09915 h 8.38068 v 54.54545 z m 4.26136,-63.636359 q -2.45028,0 -4.22585,-1.669034 -1.74006,-1.669034 -1.74006,-4.012784 0,-2.34375 1.74006,-4.012784 1.77557,-1.669034 4.22585,-1.669034 2.45029,0 4.19034,1.669034 1.77557,1.669034 1.77557,4.012784 0,2.34375 -1.77557,4.012784 -1.74005,1.669034 -4.19034,1.669034 z"
         style="font-family:Inter;-inkscape-font-specification:Inter;fill:#b60000"
         id="path859" />
      <path
         d="M 202.04332,62.917332 V 135.6446 h -8.38068 V 62.917332 Z"
         style="font-family:Inter;-inkscape-font-specification:Inter;fill:#b60000"
         id="path861" />
      <path
         d="M 225.76483,62.917332 V 135.6446 h -8.38068 V 62.917332 Z"
         style="font-family:Inter;-inkscape-font-specification:Inter;fill:#b60000"
         id="path863" />
    </g>
  </g>
</svg>
