<?xml version="1.0" encoding="UTF-8" standalone="no"?>
<!-- Created with Inkscape (http://www.inkscape.org/) -->

<svg
   width="89.221733mm"
   height="20.445076mm"
   viewBox="0 0 89.221733 20.445076"
   version="1.1"
   id="svg5"
   sodipodi:docname="text_flowers_portrait.svg"
   inkscape:version="1.2.2 (b0a8486541, 2022-12-01)"
   xmlns:inkscape="http://www.inkscape.org/namespaces/inkscape"
   xmlns:sodipodi="http://sodipodi.sourceforge.net/DTD/sodipodi-0.dtd"
   xmlns="http://www.w3.org/2000/svg"
   xmlns:svg="http://www.w3.org/2000/svg">
  <sodipodi:namedview
     id="namedview9"
     pagecolor="#ffffff"
     bordercolor="#000000"
     borderopacity="0.25"
     inkscape:showpageshadow="2"
     inkscape:pageopacity="0.0"
     inkscape:pagecheckerboard="0"
     inkscape:deskcolor="#d1d1d1"
     inkscape:document-units="mm"
     showgrid="false"
     inkscape:zoom="3.8669577"
     inkscape:cx="168.7373"
     inkscape:cy="38.531583"
     inkscape:window-width="1920"
     inkscape:window-height="1035"
     inkscape:window-x="0"
     inkscape:window-y="25"
     inkscape:window-maximized="1"
     inkscape:current-layer="svg5" />
  <defs
     id="defs2">
    <rect
       x="103.17877"
       y="43.098064"
       width="356.27963"
       height="118.44431"
       id="rect119" />
  </defs>
  <g
     id="layer1"
     transform="translate(27.111742,-41.731197)">
    <g
       aria-label="flowers"
       transform="matrix(0.26458333,0,0,0.26458333,-55.087859,26.487443)"
       id="text117"
       style="font-size:100px;white-space:pre;shape-inside:url(#rect119);display:inline">
      <path
         d="m 135.13991,81.09915 v 7.102273 h -29.4034 V 81.09915 Z M 114.54332,135.6446 V 73.570741 q 0,-4.6875 2.20171,-7.8125 2.2017,-3.125 5.71733,-4.6875 3.51562,-1.5625 7.42187,-1.5625 3.08949,0 5.04262,0.497159 1.95312,0.497159 2.91193,0.923296 l -2.41477,7.244318 q -0.63921,-0.213068 -1.77557,-0.532671 -1.10085,-0.319602 -2.91193,-0.319602 -4.15483,0 -6.00142,2.09517 -1.81108,2.095171 -1.81108,6.143466 V 135.6446 Z"
         style="font-family:Inter;-inkscape-font-specification:Inter;fill:#e4e4e4"
         id="path845" />
      <path
         d="M 155.31042,62.917332 V 135.6446 h -8.38068 V 62.917332 Z"
         style="font-family:Inter;-inkscape-font-specification:Inter;fill:#e4e4e4"
         id="path847" />
      <path
         d="m 192.81033,136.78097 q -7.38636,0 -12.96164,-3.51563 -5.53978,-3.51562 -8.66478,-9.83664 -3.08948,-6.32103 -3.08948,-14.77273 0,-8.52273 3.08948,-14.879263 3.125,-6.356534 8.66478,-9.872159 5.57528,-3.515625 12.96164,-3.515625 7.38637,0 12.92614,3.515625 5.57529,3.515625 8.66477,9.872159 3.125,6.356533 3.125,14.879263 0,8.4517 -3.125,14.77273 -3.08948,6.32102 -8.66477,9.83664 -5.53977,3.51563 -12.92614,3.51563 z m 0,-7.52841 q 5.6108,0 9.23296,-2.87642 3.62216,-2.87642 5.36222,-7.56392 1.74005,-4.6875 1.74005,-10.15625 0,-5.46875 -1.74005,-10.191763 -1.74006,-4.723011 -5.36222,-7.634943 -3.62216,-2.911932 -9.23296,-2.911932 -5.61079,0 -9.23295,2.911932 -3.62216,2.911932 -5.36222,7.634943 -1.74005,4.723013 -1.74005,10.191763 0,5.46875 1.74005,10.15625 1.74006,4.6875 5.36222,7.56392 3.62216,2.87642 9.23295,2.87642 z"
         style="font-family:Inter;-inkscape-font-specification:Inter;fill:#e4e4e4"
         id="path849" />
      <path
         d="M 240.8217,135.6446 224.20238,81.09915 h 8.80682 l 11.78977,41.76136 h 0.56818 l 11.64773,-41.76136 h 8.94886 l 11.50569,41.61932 h 0.56818 l 11.78977,-41.61932 h 8.80682 l -16.61932,54.54545 h -8.23864 L 261.84443,93.741196 h -0.85228 L 249.06033,135.6446 Z"
         style="font-family:Inter;-inkscape-font-specification:Inter;fill:#e4e4e4"
         id="path851" />
      <path
         d="m 330.73655,136.78097 q -7.88352,0 -13.60085,-3.48012 -5.68182,-3.51562 -8.77131,-9.80113 -3.05398,-6.32102 -3.05398,-14.70171 0,-8.38068 3.05398,-14.772724 3.08949,-6.427556 8.59375,-10.014204 5.53977,-3.622159 12.92614,-3.622159 4.26136,0 8.41619,1.420454 4.15483,1.420455 7.56392,4.616478 3.40909,3.160511 5.43324,8.380681 2.02415,5.220174 2.02415,12.855114 v 3.55114 h -42.04546 v -7.24432 h 33.52273 q 0,-4.616479 -1.84659,-8.238638 -1.81108,-3.622159 -5.18466,-5.71733 -3.33807,-2.09517 -7.88352,-2.09517 -5.0071,0 -8.66478,2.485795 -3.62215,2.450284 -5.57528,6.392046 -1.95312,3.941757 -1.95312,8.451707 v 4.82954 q 0,6.17898 2.13068,10.47586 2.16619,4.26136 6.00142,6.49857 3.83523,2.20171 8.91335,2.20171 3.30256,0 5.96591,-0.9233 2.69886,-0.9588 4.65199,-2.84091 1.95312,-1.91761 3.01846,-4.75852 l 8.09659,2.27273 q -1.2784,4.11932 -4.29687,7.24432 -3.01847,3.08949 -7.45739,4.82954 -4.43892,1.70455 -9.97869,1.70455 z"
         style="font-family:Inter;-inkscape-font-specification:Inter;fill:#e4e4e4"
         id="path853" />
      <path
         d="M 366.10585,135.6446 V 81.09915 h 8.09659 v 8.238636 h 0.56818 q 1.49148,-4.048295 5.39773,-6.569602 3.90625,-2.521307 8.80682,-2.521307 0.92329,0 2.30824,0.03551 1.38494,0.03551 2.09517,0.106534 v 8.522727 q -0.42614,-0.106534 -1.95313,-0.319602 -1.49148,-0.24858 -3.16051,-0.24858 -3.97727,0 -7.10227,1.669034 -3.08949,1.633523 -4.90057,4.545455 -1.77557,2.87642 -1.77557,6.569603 v 34.51704 z"
         style="font-family:Inter;-inkscape-font-specification:Inter;fill:#e4e4e4"
         id="path855" />
      <path
         d="m 441.95819,93.315059 -7.52841,2.130682 q -0.71023,-1.882102 -2.09517,-3.65767 -1.34944,-1.81108 -3.69319,-2.982955 -2.34375,-1.171875 -6.00142,-1.171875 -5.0071,0 -8.34517,2.308239 -3.30255,2.272727 -3.30255,5.788352 0,3.125 2.27272,4.936078 2.27273,1.81108 7.10228,3.01847 l 8.09659,1.98863 q 7.31534,1.77557 10.90199,5.43324 3.58664,3.62216 3.58664,9.33949 0,4.6875 -2.69886,8.38068 -2.66335,3.69318 -7.45739,5.82387 -4.79403,2.13068 -11.15056,2.13068 -8.34518,0 -13.81393,-3.62216 -5.46875,-3.62216 -6.92471,-10.58239 l 7.95454,-1.98863 q 1.13637,4.40341 4.29688,6.60511 3.19602,2.2017 8.34517,2.2017 5.85937,0 9.30398,-2.48579 3.48011,-2.52131 3.48011,-6.03693 0,-2.84091 -1.98864,-4.75853 -1.98863,-1.95312 -6.10795,-2.91193 l -9.09091,-2.13068 q -7.4929,-1.77557 -11.00852,-5.50426 -3.48012,-3.7642 -3.48012,-9.410512 0,-4.616477 2.59233,-8.167613 2.62784,-3.551137 7.13779,-5.575284 4.54545,-2.024148 10.29829,-2.024148 8.09659,0 12.71307,3.551136 4.65199,3.551137 6.60512,9.375 z"
         style="font-family:Inter;-inkscape-font-specification:Inter;fill:#e4e4e4"
         id="path857" />
    </g>
  </g>
</svg>
