<?xml version="1.0" encoding="UTF-8" standalone="no"?>
<!-- Created with Inkscape (http://www.inkscape.org/) -->

<svg
   width="20.150906mm"
   height="63.590221mm"
   viewBox="0 0 20.150906 63.590222"
   version="1.1"
   id="svg5"
   sodipodi:docname="text_angel.svg"
   inkscape:version="1.2.2 (b0a8486541, 2022-12-01)"
   xmlns:inkscape="http://www.inkscape.org/namespaces/inkscape"
   xmlns:sodipodi="http://sodipodi.sourceforge.net/DTD/sodipodi-0.dtd"
   xmlns="http://www.w3.org/2000/svg"
   xmlns:svg="http://www.w3.org/2000/svg">
  <sodipodi:namedview
     id="namedview7"
     pagecolor="#ffffff"
     bordercolor="#000000"
     borderopacity="0.25"
     inkscape:showpageshadow="2"
     inkscape:pageopacity="0.0"
     inkscape:pagecheckerboard="0"
     inkscape:deskcolor="#d1d1d1"
     inkscape:document-units="mm"
     showgrid="false"
     inkscape:zoom="3.5040966"
     inkscape:cx="26.683054"
     inkscape:cy="101.59537"
     inkscape:window-width="1920"
     inkscape:window-height="1035"
     inkscape:window-x="0"
     inkscape:window-y="25"
     inkscape:window-maximized="1"
     inkscape:current-layer="text117"
     showguides="true">
    <sodipodi:guide
       position="16.13855,17.568371"
       orientation="1,0"
       id="guide871"
       inkscape:locked="false" />
  </sodipodi:namedview>
  <defs
     id="defs2">
    <rect
       x="103.17877"
       y="43.098064"
       width="356.27963"
       height="118.44431"
       id="rect119" />
  </defs>
  <g
     inkscape:label="Layer 1"
     inkscape:groupmode="layer"
     id="layer1"
     transform="translate(-0.76464276,-7.7416832)">
    <g
       id="g880">
      <g
         aria-label="an  el"
         transform="matrix(0,0.26458333,-0.26458333,0,36.928126,-20.910925)"
         id="text117"
         style="font-size:100px;white-space:pre;shape-inside:url(#rect119);display:inline;fill:#6ecaed">
        <path
           d="m 126.90128,138.19348 q -5.18466,0 -9.41051,-2.19724 -4.22586,-2.23721 -6.71165,-6.43196 -2.4858,-4.2347 -2.4858,-10.22719 0,-5.2734 1.84659,-8.5493 1.8466,-3.31585 4.93608,-5.19351 3.08949,-1.87763 6.81819,-2.79649 3.7642,-0.9588 7.56392,-1.5181 4.97159,-0.7191 8.06108,-1.07865 3.125,-0.399503 4.54545,-1.318357 1.45597,-0.918843 1.45597,-3.195993 v -0.3196 q 0,-5.912599 -2.87642,-9.188498 -2.84091,-3.2759 -8.62927,-3.2759 -6.00142,0 -9.41051,2.956299 -3.40909,2.956301 -4.79403,6.3121 l -7.95455,-3.195999 q 2.13069,-5.593 5.68182,-8.709099 3.58665,-3.156049 7.8125,-4.3945 4.26137,-1.278399 8.38068,-1.278399 2.62784,0 6.03694,0.7191 3.4446,0.67915 6.64062,2.836449 3.23153,2.157301 5.36222,6.511848 2.13068,4.354551 2.13068,11.665394 v 40.429395 h -8.38068 v -8.3096 h -0.42614 q -0.85227,1.9975 -2.84091,4.27466 -1.98864,2.27714 -5.29119,3.87515 -3.30256,1.59799 -8.06108,1.59799 z m 1.27841,-8.4694 q 4.97159,0 8.38068,-2.19725 3.4446,-2.19725 5.18466,-5.67289 1.77557,-3.47566 1.77557,-7.31085 v -8.6292 q -0.53267,0.7191 -2.34375,1.31835 -1.77557,0.55931 -4.11932,0.99874 -2.30824,0.3995 -4.50994,0.71911 -2.1662,0.27965 -3.51563,0.47939 -3.26705,0.47941 -6.10795,1.55807 -2.8054,1.03869 -4.54546,3.15603 -1.70454,2.0774 -1.70454,5.67291 0,4.91384 3.23153,7.4307 3.26705,2.47689 8.27415,2.47689 z"
           style="font-family:Inter;-inkscape-font-specification:Inter;stroke-width:1.06065"
           id="path861" />
        <path
           d="m 175.62292,100.38781 v 36.81358 h -8.38068 V 76.004788 h 8.09659 v 9.56197 h 0.71023 q 1.91761,-4.661459 5.82386,-7.490209 3.90625,-2.868591 10.08523,-2.868591 5.53977,0 9.6946,2.549858 4.15483,2.510017 6.46307,7.649576 2.30824,5.099717 2.30824,12.90865 v 38.885348 h -8.38068 V 98.953518 q 0,-7.211321 -3.33807,-11.235317 -3.33807,-4.063836 -9.16193,-4.063836 -4.01279,0 -7.1733,1.952235 -3.125,1.952235 -4.93608,5.69734 -1.81108,3.745105 -1.81108,9.08387 z"
           style="font-family:Inter;-inkscape-font-specification:Inter;stroke-width:1.05922"
           id="path863" />
        <path
           d="m 304.88435,136.78097 q -7.88353,0 -13.60086,-3.76611 -5.68181,-3.80452 -8.7713,-10.60656 -3.05398,-6.84047 -3.05398,-15.90987 0,-9.069382 3.05398,-15.98671 3.08949,-6.955758 8.59375,-10.837149 5.53977,-3.91982 12.92613,-3.91982 4.26137,0 8.4162,1.537184 4.15483,1.537184 7.56392,4.995849 3.40909,3.420235 5.43324,9.069387 2.02414,5.649156 2.02414,13.911519 v 3.84296 h -42.04545 v -7.83964 h 33.52273 q 0,-4.995849 -1.84659,-8.915669 -1.81108,-3.919819 -5.18466,-6.187167 -3.33807,-2.267346 -7.88353,-2.267346 -5.0071,0 -8.66477,2.690072 -3.62216,2.651643 -5.57528,6.91733 -1.95313,4.265682 -1.95313,9.14625 v 5.22642 q 0,6.68675 2.13068,11.33674 2.1662,4.61155 6.00142,7.03261 3.83523,2.38264 8.91336,2.38264 3.30255,0 5.96591,-0.99917 2.69886,-1.03759 4.65198,-3.07437 1.95313,-2.0752 3.01847,-5.14957 l 8.09659,2.4595 q -1.27841,4.45784 -4.29687,7.83964 -3.01847,3.34338 -7.45739,5.22642 -4.43892,1.84463 -9.97869,1.84463 z"
           style="font-family:Inter;-inkscape-font-specification:Inter;stroke-width:1.04028"
           id="path865" />
      </g>
      <g
         aria-label="g"
         transform="rotate(90,-0.13464177,-0.13464177)"
         id="text285"
         style="font-size:22.9306px;font-family:Inter;-inkscape-font-specification:Inter;fill:#6ecaed;stroke-width:0.264583">
        <path
           d="m 43.770469,0.29849906 q -1.392447,0 -2.394032,-0.35829061 -1.001585,-0.35014764 -1.669309,-0.9282984 -0.65958,-0.57000775 -1.050443,-1.22144525 l 1.530878,-1.0748719 q 0.260575,0.3420047 0.659581,0.781725 0.399005,0.4478633 1.091158,0.773582 0.700295,0.3338617 1.832167,0.3338617 1.514593,0 2.499892,-0.7328671 0.985299,-0.7328672 0.985299,-2.2963171 v -2.5406062 h -0.162859 q -0.211718,0.3420047 -0.60258,0.8468687 -0.38272,0.4967211 -1.107444,0.8875836 -0.716581,0.3827195 -1.938026,0.3827195 -1.514592,0 -2.719752,-0.7165812 -1.197016,-0.7165813 -1.897311,-2.0846 -0.692153,-1.3680187 -0.692153,-3.3223308 0,-1.921741 0.675867,-3.34676 0.675866,-1.433163 1.881025,-2.214888 1.20516,-0.789868 2.784896,-0.789868 1.221445,0 1.938026,0.407149 0.724724,0.399005 1.107444,0.912012 0.390862,0.504864 0.602579,0.830583 h 0.195432 v -1.986884 h 1.856597 v 12.8658898 q 0,1.6123078 -0.732868,2.6220359 -0.724724,1.01787105 -1.954312,1.49016322 -1.221445,0.48043514 -2.719752,0.48043514 z m -0.06514,-6.87266536 q 1.156301,0 1.954312,-0.529293 0.798011,-0.5292929 1.213302,-1.5227351 0.415292,-0.9934421 0.415292,-2.3777466 0,-1.351733 -0.407149,-2.38589 -0.407148,-1.034157 -1.205159,-1.620451 -0.798011,-0.586293 -1.970598,-0.586293 -1.221446,0 -2.035742,0.618865 -0.806154,0.618866 -1.213303,1.661166 -0.399005,1.0423 -0.399005,2.312603 0,1.3028748 0.407148,2.3044599 0.415292,0.9934422 1.221446,1.56345 0.814296,0.5618648 2.019456,0.5618648 z"
           id="path870" />
      </g>
      <path
         d="M 20.281248,71.331907 H 0.45923706 V 69.114519 H 20.281248 Z"
         style="font-size:100px;font-family:Inter;-inkscape-font-specification:Inter;white-space:pre;shape-inside:url(#rect119);display:inline;fill:#6ecaed;stroke-width:0.268539"
         id="path867" />
    </g>
  </g>
</svg>
