<?xml version="1.0" encoding="UTF-8" standalone="no"?>
<!-- Created with Inkscape (http://www.inkscape.org/) -->

<svg
   width="63.590225mm"
   height="20.462559mm"
   viewBox="0 0 63.590225 20.46256"
   version="1.1"
   id="svg5"
   sodipodi:docname="text_angel_portrait.svg"
   inkscape:version="1.2.2 (b0a8486541, 2022-12-01)"
   xmlns:inkscape="http://www.inkscape.org/namespaces/inkscape"
   xmlns:sodipodi="http://sodipodi.sourceforge.net/DTD/sodipodi-0.dtd"
   xmlns="http://www.w3.org/2000/svg"
   xmlns:svg="http://www.w3.org/2000/svg">
  <sodipodi:namedview
     id="namedview7"
     pagecolor="#ffffff"
     bordercolor="#000000"
     borderopacity="0.25"
     inkscape:showpageshadow="2"
     inkscape:pageopacity="0.0"
     inkscape:pagecheckerboard="0"
     inkscape:deskcolor="#d1d1d1"
     inkscape:document-units="mm"
     showgrid="false"
     inkscape:zoom="3.5040966"
     inkscape:cx="139.40826"
     inkscape:cy="49.941546"
     inkscape:window-width="1920"
     inkscape:window-height="1035"
     inkscape:window-x="0"
     inkscape:window-y="25"
     inkscape:window-maximized="1"
     inkscape:current-layer="g880"
     showguides="true">
    <sodipodi:guide
       position="45.00209,16.007655"
       orientation="0,-1"
       id="guide1839"
       inkscape:locked="false" />
  </sodipodi:namedview>
  <defs
     id="defs2">
    <rect
       x="103.17877"
       y="43.098064"
       width="356.27963"
       height="118.44431"
       id="rect119" />
  </defs>
  <g
     inkscape:label="Layer 1"
     inkscape:groupmode="layer"
     id="layer1"
     transform="translate(20.216858,-34.464634)">
    <g
       id="g880">
      <path
         d="m -15.293503,55.480541 q -1.371774,0 -2.489864,-0.583291 -1.118092,-0.593899 -1.775791,-1.707457 -0.657701,-1.124166 -0.657701,-2.714964 0,-1.399902 0.488577,-2.269538 0.48858,-0.88024 1.306005,-1.378693 0.817427,-0.498449 1.803979,-0.742371 0.995945,-0.254529 2.001287,-0.403005 1.3154,-0.190894 2.132828,-0.286341 0.826822,-0.106057 1.20265,-0.349978 0.385225,-0.243921 0.385225,-0.848425 v -0.08484 q 0,-1.569588 -0.761053,-2.439225 -0.751657,-0.869637 -2.283161,-0.869637 -1.587875,0 -2.489864,0.784794 -0.901988,0.784794 -1.26842,1.675641 l -2.104641,-0.848426 q 0.563745,-1.484745 1.503315,-2.31196 0.948967,-0.837821 2.067057,-1.166585 1.127487,-0.339371 2.217388,-0.339371 0.695283,0 1.597274,0.190896 0.911383,0.18029 1.756997,0.752977 0.855009,0.572688 1.4187541,1.728669 0.5637424,1.15598 0.5637424,3.096754 v 10.732586 h -2.2173885 v -2.205906 h -0.112749 q -0.225497,0.530266 -0.751658,1.134771 -0.526161,0.604501 -1.39996,1.028716 -0.873803,0.424211 -2.132828,0.424211 z m 0.338246,-2.248329 q 1.3154,0 2.217388,-0.583291 0.911384,-0.583294 1.371775,-1.505954 0.469786,-0.922664 0.469786,-1.940775 v -2.290751 q -0.140935,0.190897 -0.620117,0.349977 -0.469786,0.148474 -1.089903,0.265132 -0.610722,0.106056 -1.193255,0.190897 -0.573141,0.07424 -0.930177,0.127262 -0.864407,0.127265 -1.616062,0.413609 -0.742262,0.275738 -1.202653,0.837819 -0.450993,0.551477 -0.450993,1.505958 0,1.304452 0.855009,1.972589 0.864407,0.657528 2.189202,0.657528 z"
         style="font-size:100px;font-family:Inter;-inkscape-font-specification:Inter;white-space:pre;fill:#6ecaed;stroke-width:0.281099"
         id="path861" />
      <path
         d="m -2.402569,45.357883 v 9.784413 H -4.6199572 V 38.877301 h 2.1422227 v 2.541406 h 0.187915 q 0.5073677,-1.238936 1.54089631,-1.990768 1.03352863,-0.762422 2.66838369,-0.762422 1.4657308,0 2.5650296,0.677708 1.0992988,0.66712 1.7100206,2.033125 0.6107218,1.355416 0.6107218,3.430897 V 55.142296 H 4.5878443 v -10.16562 q 0,-1.916644 -0.8831977,-2.986153 -0.8831977,-1.080097 -2.4240939,-1.080097 -1.06171738,0 -1.89793564,0.518871 -0.82682286,0.51887 -1.30600446,1.514254 -0.4791816,0.995383 -0.4791816,2.414332 z"
         style="font-size:100px;font-family:Inter;-inkscape-font-specification:Inter;white-space:pre;fill:#6ecaed;stroke-width:0.280885"
         id="path863" />
      <path
         d="m 31.797851,55.442961 q -2.085851,0 -3.598561,-1.012667 -1.503312,-1.022998 -2.32074,-2.851995 -0.808032,-1.83933 -0.808032,-4.277995 0,-2.438663 0.808032,-4.29866 0.817428,-1.870331 2.273763,-2.913995 1.465731,-1.053999 3.420039,-1.053999 1.127487,0 2.226786,0.413333 1.099298,0.413332 2.001287,1.343332 0.901988,0.919664 1.437545,2.438663 0.535553,1.518998 0.535553,3.740661 v 1.033333 H 26.648998 v -2.107998 h 8.869556 q 0,-1.343331 -0.488577,-2.39733 -0.479182,-1.053998 -1.371775,-1.663664 -0.883198,-0.609667 -2.08585,-0.609667 -1.324796,0 -2.292554,0.723332 -0.958363,0.713 -1.475126,1.859998 -0.516766,1.146997 -0.516766,2.459331 v 1.40533 q 0,1.797998 0.563742,3.048331 0.573141,1.239998 1.587876,1.890994 1.014738,0.640668 2.358327,0.640668 0.873799,0 1.57848,-0.268668 0.714073,-0.278998 1.230836,-0.826665 0.516766,-0.557999 0.798637,-1.384665 l 2.142223,0.661334 q -0.338246,1.198664 -1.13688,2.107997 -0.798637,0.899 -1.973101,1.40533 -1.174465,0.496001 -2.640195,0.496001 z"
         style="font-size:100px;font-family:Inter;-inkscape-font-specification:Inter;white-space:pre;fill:#6ecaed;stroke-width:0.277471"
         id="path865" />
      <path
         d="M 43.373366,35.899873 V 55.142296 H 41.155978 V 35.899873 Z"
         style="font-size:100px;font-family:Inter;-inkscape-font-specification:Inter;white-space:pre;fill:#6ecaed;stroke-width:0.264583"
         id="path867" />
      <g
         aria-label="g"
         id="text285"
         style="font-size:22.9306px;font-family:Inter;-inkscape-font-specification:Inter;fill:#6ecaed;stroke-width:0.264583">
        <path
           d="m 16.478285,56.459115 q -1.392448,0 -2.394033,-0.358291 -1.001585,-0.350147 -1.669309,-0.928298 -0.65958,-0.570008 -1.050443,-1.221445 l 1.530879,-1.074872 q 0.260575,0.342005 0.65958,0.781725 0.399005,0.447863 1.091158,0.773582 0.700295,0.333862 1.832168,0.333862 1.514592,0 2.499891,-0.732868 0.985299,-0.732867 0.985299,-2.296317 v -2.540606 h -0.162859 q -0.211717,0.342005 -0.60258,0.846869 -0.382719,0.496721 -1.107444,0.887583 -0.716581,0.38272 -1.938026,0.38272 -1.514592,0 -2.719752,-0.716581 -1.197016,-0.716582 -1.897311,-2.0846 -0.692153,-1.368019 -0.692153,-3.322331 0,-1.921741 0.675867,-3.34676 0.675866,-1.433163 1.881026,-2.214888 1.205159,-0.789868 2.784895,-0.789868 1.221445,0 1.938026,0.407149 0.724724,0.399005 1.107444,0.912012 0.390862,0.504864 0.60258,0.830583 h 0.195431 v -1.986884 h 1.856597 v 12.86589 q 0,1.612308 -0.732867,2.622036 -0.724725,1.017871 -1.954313,1.490163 -1.221445,0.480435 -2.719751,0.480435 z m -0.06514,-6.872665 q 1.156301,0 1.954312,-0.529293 0.798011,-0.529293 1.213303,-1.522735 0.415291,-0.993443 0.415291,-2.377747 0,-1.351733 -0.407148,-2.38589 -0.407149,-1.034157 -1.20516,-1.620451 -0.798011,-0.586293 -1.970598,-0.586293 -1.221445,0 -2.035742,0.618865 -0.806154,0.618866 -1.213303,1.661166 -0.399005,1.0423 -0.399005,2.312603 0,1.302875 0.407148,2.30446 0.415292,0.993442 1.221446,1.56345 0.814297,0.561865 2.019456,0.561865 z"
           id="path870" />
      </g>
    </g>
  </g>
</svg>
