<?xml version="1.0" encoding="UTF-8" standalone="no"?>
<!-- Created with Inkscape (http://www.inkscape.org/) -->

<svg
   width="20.181971mm"
   height="139.88313mm"
   viewBox="0 0 20.181972 139.88313"
   version="1.1"
   id="svg5"
   inkscape:export-filename="text_culmination.svg"
   inkscape:export-xdpi="96"
   inkscape:export-ydpi="96"
   sodipodi:docname="text_culmination.svg"
   inkscape:version="1.2.2 (b0a8486541, 2022-12-01)"
   xmlns:inkscape="http://www.inkscape.org/namespaces/inkscape"
   xmlns:sodipodi="http://sodipodi.sourceforge.net/DTD/sodipodi-0.dtd"
   xmlns="http://www.w3.org/2000/svg"
   xmlns:svg="http://www.w3.org/2000/svg">
  <sodipodi:namedview
     id="namedview7"
     pagecolor="#ffffff"
     bordercolor="#000000"
     borderopacity="0.25"
     inkscape:showpageshadow="2"
     inkscape:pageopacity="0.0"
     inkscape:pagecheckerboard="0"
     inkscape:deskcolor="#d1d1d1"
     inkscape:document-units="mm"
     showgrid="false"
     inkscape:zoom="1.6001751"
     inkscape:cx="38.433295"
     inkscape:cy="264.34608"
     inkscape:window-width="1920"
     inkscape:window-height="1035"
     inkscape:window-x="0"
     inkscape:window-y="25"
     inkscape:window-maximized="1"
     inkscape:current-layer="layer1" />
  <defs
     id="defs2" />
  <g
     inkscape:label="Layer 1"
     inkscape:groupmode="layer"
     id="layer1"
     transform="translate(-80.321117,-12.376615)">
    <g
       aria-label="culmination"
       transform="rotate(90)"
       id="text1528"
       style="font-size:26.4583px;font-family:Inter;-inkscape-font-specification:Inter;fill:#008080;stroke-width:0.264583">
      <path
         d="m 18.916024,-79.684155 q -2.029471,0 -3.495201,-0.958362 -1.46573,-0.958361 -2.254969,-2.640192 -0.789239,-1.681831 -0.789239,-3.842843 0,-2.198594 0.808031,-3.880425 0.817426,-1.691227 2.27376,-2.640193 1.465729,-0.958361 3.420036,-0.958361 1.522104,0 2.743545,0.563742 1.221441,0.563742 2.001285,1.578478 0.779843,1.014736 0.967757,2.367717 h -2.217386 q -0.253684,-0.986549 -1.127484,-1.747601 -0.864405,-0.770447 -2.330135,-0.770447 -1.296607,0 -2.27376,0.67649 -0.967757,0.667095 -1.512708,1.888537 -0.535555,1.212045 -0.535555,2.846898 0,1.672435 0.526159,2.912668 0.535556,1.240232 1.503313,1.926119 0.977153,0.685886 2.292551,0.685886 0.864405,0 1.569083,-0.300663 0.704678,-0.300662 1.193254,-0.864404 0.488577,-0.563742 0.695282,-1.352981 h 2.217386 q -0.187914,1.277815 -0.930175,2.301947 -0.732864,1.014736 -1.94491,1.616061 -1.20265,0.591929 -2.79992,0.591929 z"
         style="fill:#7a0300"
         id="path843" />
      <path
         d="m 36.9182,-85.885319 v -8.531298 h 2.217386 v 14.431799 H 36.9182 V -82.4277 h -0.150331 q -0.507368,1.099297 -1.578478,1.869745 -1.07111,0.761052 -2.705963,0.761052 -1.352981,0 -2.4053,-0.59193 -1.052318,-0.601325 -1.653643,-1.803975 -0.601325,-1.212045 -0.601325,-3.053603 v -9.170206 h 2.217386 v 9.019875 q 0,1.578478 0.883196,2.518048 0.892591,0.93957 2.27376,0.93957 0.826822,0 1.681831,-0.422806 0.864404,-0.422807 1.446938,-1.296607 0.591929,-0.873801 0.591929,-2.226782 z"
         style="fill:#7a0300"
         id="path845" />
      <path
         d="m 45.411893,-99.227217 v 19.242399 h -2.217386 v -19.242399 z"
         style="fill:#7a0300"
         id="path847" />
      <path
         d="m 49.470815,-79.984818 v -14.431799 h 2.14222 v 2.254968 h 0.187914 q 0.450994,-1.155671 1.456334,-1.794579 1.005341,-0.648303 2.414696,-0.648303 1.428147,0 2.377113,0.648303 0.958362,0.638908 1.493917,1.794579 h 0.150331 q 0.554346,-1.118088 1.663039,-1.775787 1.108693,-0.667095 2.658984,-0.667095 1.935515,0 3.166352,1.212045 1.230837,1.20265 1.230837,3.748886 v 9.658782 H 66.195166 V -89.6436 q 0,-1.59727 -0.8738,-2.283156 -0.8738,-0.685886 -2.057659,-0.685886 -1.522104,0 -2.358321,0.920779 -0.836218,0.911383 -0.836218,2.311342 v 9.395703 h -2.254969 v -9.884279 q 0,-1.230837 -0.798634,-1.982493 -0.798635,-0.761052 -2.057659,-0.761052 -0.864405,0 -1.616061,0.460389 -0.742261,0.46039 -1.20265,1.277816 -0.450994,0.80803 -0.450994,1.869745 v 9.019874 z"
         style="fill:#7a0300"
         id="path849" />
      <path
         d="m 72.47149,-79.984818 v -14.431799 h 2.217386 v 14.431799 z m 1.127485,-16.837099 q -0.648304,0 -1.118089,-0.441598 -0.460389,-0.441598 -0.460389,-1.061715 0,-0.620116 0.460389,-1.061714 0.469785,-0.441598 1.118089,-0.441598 0.648303,0 1.108693,0.441598 0.469785,0.441598 0.469785,1.061714 0,0.620117 -0.469785,1.061715 -0.46039,0.441598 -1.108693,0.441598 z"
         style="fill:#7a0300"
         id="path851" />
      <path
         d="m 80.965186,-88.666447 v 8.681629 H 78.7478 v -14.431799 h 2.142221 v 2.254968 h 0.187914 q 0.507368,-1.099297 1.540895,-1.766392 1.033527,-0.67649 2.66838,-0.67649 1.465729,0 2.565027,0.601325 1.099297,0.591929 1.710017,1.803975 0.610721,1.20265 0.610721,3.044207 v 9.170206 h -2.217386 v -9.019874 q 0,-1.700623 -0.883196,-2.649589 -0.883196,-0.958361 -2.424091,-0.958361 -1.061715,0 -1.897932,0.460389 -0.826822,0.46039 -1.306003,1.343586 -0.479181,0.883196 -0.479181,2.14222 z"
         style="fill:#7a0300"
         id="path853" />
      <path
         d="m 98.478789,-79.646572 q -1.371773,0 -2.489861,-0.516764 -1.118089,-0.526159 -1.775788,-1.512708 -0.657699,-0.995945 -0.657699,-2.4053 0,-1.240233 0.488576,-2.01068 0.488577,-0.779844 1.306003,-1.221442 0.817426,-0.441598 1.803975,-0.657699 0.995944,-0.225497 2.001285,-0.357037 1.3154,-0.169122 2.13282,-0.253684 0.82683,-0.09396 1.20265,-0.310058 0.38523,-0.216101 0.38523,-0.751656 v -0.07517 q 0,-1.390564 -0.76105,-2.161011 -0.75166,-0.770448 -2.28316,-0.770448 -1.587874,0 -2.489861,0.695282 -0.901988,0.695282 -1.26842,1.484521 l -2.104638,-0.751656 q 0.563743,-1.315399 1.503313,-2.048264 0.948966,-0.74226 2.067055,-1.033527 1.127484,-0.300662 2.217386,-0.300662 0.695285,0 1.597265,0.169122 0.91139,0.159727 1.757,0.667095 0.85501,0.507368 1.41875,1.5315 0.56374,1.024131 0.56374,2.743545 v 9.508451 h -2.21738 v -1.954306 h -0.11275 q -0.2255,0.469785 -0.75166,1.00534 -0.52616,0.535556 -1.39996,0.911384 -0.873797,0.375828 -2.132821,0.375828 z m 0.338245,-1.991889 q 1.315396,0 2.217386,-0.516764 0.91138,-0.516764 1.37177,-1.33419 0.46979,-0.817426 0.46979,-1.719413 V -87.2383 q -0.14094,0.169122 -0.62012,0.310058 -0.46978,0.13154 -1.0899,0.234893 -0.61072,0.09396 -1.193254,0.169122 -0.573138,0.06577 -0.930175,0.112749 -0.864405,0.112748 -1.616061,0.366432 -0.74226,0.244288 -1.20265,0.742261 -0.450994,0.488576 -0.450994,1.334189 0,1.155672 0.855009,1.747601 0.864405,0.582534 2.189199,0.582534 z"
         style="fill:#7a0300"
         id="path855" />
      <path
         d="m 115.42866,-94.416617 v 1.87914 h -7.47898 v -1.87914 z m -5.29918,-3.457619 h 2.21739 v 13.755309 q 0,0.93957 0.27247,1.409356 0.28187,0.460389 0.71407,0.620116 0.4416,0.150331 0.93018,0.150331 0.36643,0 0.60132,-0.03758 0.2349,-0.04698 0.37583,-0.07516 l 0.451,1.991889 q -0.2255,0.08456 -0.62952,0.169123 -0.40401,0.09396 -1.02413,0.09396 -0.93957,0 -1.84156,-0.404016 -0.89259,-0.404015 -1.48452,-1.230837 -0.58253,-0.826822 -0.58253,-2.085846 z"
         style="fill:#7a0300"
         id="path857" />
      <path
         d="m 118.77352,-79.984818 v -14.431799 h 2.21738 v 14.431799 z m 1.12748,-16.837099 q -0.6483,0 -1.11809,-0.441598 -0.46038,-0.441598 -0.46038,-1.061715 0,-0.620116 0.46038,-1.061714 0.46979,-0.441598 1.11809,-0.441598 0.64831,0 1.1087,0.441598 0.46978,0.441598 0.46978,1.061714 0,0.620117 -0.46978,1.061715 -0.46039,0.441598 -1.1087,0.441598 z"
         style="fill:#7a0300"
         id="path859" />
      <path
         d="m 130.91274,-79.684155 q -1.9543,0 -3.42943,-0.930175 -1.46573,-0.930174 -2.29255,-2.602609 -0.81743,-1.672435 -0.81743,-3.908613 0,-2.254969 0.81743,-3.936799 0.82682,-1.681831 2.29255,-2.612006 1.47513,-0.930174 3.42943,-0.930174 1.95431,0 3.42004,0.930174 1.47513,0.930175 2.29255,2.612006 0.82682,1.68183 0.82682,3.936799 0,2.236178 -0.82682,3.908613 -0.81742,1.672435 -2.29255,2.602609 -1.46573,0.930175 -3.42004,0.930175 z m 0,-1.991889 q 1.48452,0 2.44289,-0.761052 0.95836,-0.761052 1.41875,-2.001285 0.46039,-1.240233 0.46039,-2.687171 0,-1.446938 -0.46039,-2.696567 -0.46039,-1.249628 -1.41875,-2.020076 -0.95837,-0.770447 -2.44289,-0.770447 -1.48452,0 -2.44288,0.770447 -0.95836,0.770448 -1.41875,2.020076 -0.46039,1.249629 -0.46039,2.696567 0,1.446938 0.46039,2.687171 0.46039,1.240233 1.41875,2.001285 0.95836,0.761052 2.44288,0.761052 z"
         style="fill:#7a0300"
         id="path861" />
      <path
         d="m 143.05196,-88.666447 v 8.681629 h -2.21738 v -14.431799 h 2.14222 v 2.254968 h 0.18791 q 0.50737,-1.099297 1.5409,-1.766392 1.03352,-0.67649 2.66838,-0.67649 1.46573,0 2.56502,0.601325 1.0993,0.591929 1.71002,1.803975 0.61072,1.20265 0.61072,3.044207 v 9.170206 h -2.21738 v -9.019874 q 0,-1.700623 -0.8832,-2.649589 -0.8832,-0.958361 -2.42409,-0.958361 -1.06172,0 -1.89793,0.460389 -0.82683,0.46039 -1.30601,1.343586 -0.47918,0.883196 -0.47918,2.14222 z"
         style="fill:#7a0300"
         id="path863" />
    </g>
  </g>
</svg>
