<?xml version="1.0" encoding="UTF-8" standalone="no"?>
<!-- Created with Inkscape (http://www.inkscape.org/) -->

<svg
   width="139.88312mm"
   height="20.181971mm"
   viewBox="0 0 139.88312 20.18197"
   version="1.1"
   id="svg5"
   inkscape:export-filename="text_culmination.svg"
   inkscape:export-xdpi="96"
   inkscape:export-ydpi="96"
   sodipodi:docname="text_culmination_portrait.svg"
   inkscape:version="1.2.2 (b0a8486541, 2022-12-01)"
   xmlns:inkscape="http://www.inkscape.org/namespaces/inkscape"
   xmlns:sodipodi="http://sodipodi.sourceforge.net/DTD/sodipodi-0.dtd"
   xmlns="http://www.w3.org/2000/svg"
   xmlns:svg="http://www.w3.org/2000/svg">
  <sodipodi:namedview
     id="namedview7"
     pagecolor="#ffffff"
     bordercolor="#000000"
     borderopacity="0.25"
     inkscape:showpageshadow="2"
     inkscape:pageopacity="0.0"
     inkscape:pagecheckerboard="0"
     inkscape:deskcolor="#d1d1d1"
     inkscape:document-units="mm"
     showgrid="false"
     inkscape:zoom="1.7440534"
     inkscape:cx="253.7193"
     inkscape:cy="46.443532"
     inkscape:window-width="1920"
     inkscape:window-height="1035"
     inkscape:window-x="0"
     inkscape:window-y="25"
     inkscape:window-maximized="1"
     inkscape:current-layer="layer1" />
  <defs
     id="defs2" />
  <g
     inkscape:label="Layer 1"
     inkscape:groupmode="layer"
     id="layer1"
     transform="translate(-20.470535,-71.430308)">
    <g
       aria-label="culmination"
       id="text1528"
       style="font-size:26.4583px;font-family:Inter;-inkscape-font-specification:Inter;fill:#008080;stroke-width:0.264583">
      <path
         d="m 27.009944,92.371585 q -2.029472,0 -3.495201,-0.958361 -1.46573,-0.958362 -2.254969,-2.640193 -0.789239,-1.681831 -0.789239,-3.842842 0,-2.198595 0.80803,-3.880426 0.817427,-1.691226 2.273761,-2.640192 1.465729,-0.958362 3.420035,-0.958362 1.522104,0 2.743546,0.563742 1.221441,0.563742 2.001284,1.578478 0.779844,1.014736 0.967758,2.367717 h -2.217386 q -0.253684,-0.986548 -1.127484,-1.7476 -0.864405,-0.770448 -2.330135,-0.770448 -1.296607,0 -2.27376,0.676491 -0.967757,0.667095 -1.512708,1.888536 -0.535555,1.212046 -0.535555,2.846898 0,1.672435 0.526159,2.912668 0.535555,1.240233 1.503313,1.926119 0.977153,0.685886 2.292551,0.685886 0.864405,0 1.569083,-0.300662 0.704677,-0.300663 1.193254,-0.864405 0.488576,-0.563742 0.695282,-1.352981 h 2.217386 q -0.187914,1.277816 -0.930175,2.301947 -0.732865,1.014736 -1.94491,1.616061 -1.20265,0.591929 -2.79992,0.591929 z"
         style="fill:#7a0300"
         id="path843" />
      <path
         d="m 45.01212,86.170421 v -8.531298 h 2.217386 v 14.4318 H 45.01212 V 89.62804 h -0.150331 q -0.507368,1.099297 -1.578478,1.869745 -1.071111,0.761052 -2.705963,0.761052 -1.352981,0 -2.4053,-0.591929 -1.052319,-0.601325 -1.653644,-1.803975 -0.601325,-1.212046 -0.601325,-3.053604 v -9.170206 h 2.217386 v 9.019875 q 0,1.578478 0.883196,2.518048 0.892592,0.939571 2.273761,0.939571 0.826821,0 1.68183,-0.422807 0.864405,-0.422807 1.446939,-1.296607 0.591929,-0.8738 0.591929,-2.226782 z"
         style="fill:#7a0300"
         id="path845" />
      <path
         d="m 53.505813,72.828523 v 19.2424 h -2.217386 v -19.2424 z"
         style="fill:#7a0300"
         id="path847" />
      <path
         d="m 57.564735,92.070923 v -14.4318 h 2.14222 v 2.254969 h 0.187914 q 0.450994,-1.155672 1.456334,-1.79458 1.00534,-0.648303 2.414696,-0.648303 1.428147,0 2.377113,0.648303 0.958361,0.638908 1.493917,1.79458 h 0.150331 q 0.554346,-1.118089 1.663039,-1.775788 1.108693,-0.667095 2.658984,-0.667095 1.935515,0 3.166352,1.212046 1.230837,1.20265 1.230837,3.748885 v 9.658783 H 74.289086 V 82.41214 q 0,-1.597269 -0.8738,-2.283156 -0.873801,-0.685886 -2.057659,-0.685886 -1.522104,0 -2.358322,0.920779 -0.836217,0.911383 -0.836217,2.311343 v 9.395703 h -2.254969 v -9.88428 q 0,-1.230837 -0.798635,-1.982493 -0.798634,-0.761052 -2.057659,-0.761052 -0.864404,0 -1.61606,0.460389 -0.742261,0.46039 -1.20265,1.277816 -0.450994,0.808031 -0.450994,1.869745 v 9.019875 z"
         style="fill:#7a0300"
         id="path849" />
      <path
         d="m 80.56541,92.070923 v -14.4318 h 2.217386 v 14.4318 z m 1.127484,-16.8371 q -0.648303,0 -1.118088,-0.441598 -0.46039,-0.441598 -0.46039,-1.061714 0,-0.620117 0.46039,-1.061715 0.469785,-0.441598 1.118088,-0.441598 0.648304,0 1.108693,0.441598 0.469786,0.441598 0.469786,1.061715 0,0.620116 -0.469786,1.061714 -0.460389,0.441598 -1.108693,0.441598 z"
         style="fill:#7a0300"
         id="path851" />
      <path
         d="m 89.059106,83.389293 v 8.68163 H 86.84172 v -14.4318 h 2.14222 v 2.254969 h 0.187914 q 0.507368,-1.099297 1.540896,-1.766392 1.033527,-0.676491 2.668379,-0.676491 1.46573,0 2.565027,0.601325 1.099298,0.591929 1.710018,1.803975 0.610721,1.20265 0.610721,3.044208 v 9.170206 h -2.217386 v -9.019875 q 0,-1.700622 -0.883196,-2.649588 -0.883196,-0.958362 -2.424091,-0.958362 -1.061715,0 -1.897932,0.460389 -0.826822,0.46039 -1.306003,1.343586 -0.479181,0.883196 -0.479181,2.14222 z"
         style="fill:#7a0300"
         id="path853" />
      <path
         d="m 106.57271,92.409168 q -1.37177,0 -2.48986,-0.516764 -1.11809,-0.526159 -1.77579,-1.512708 -0.6577,-0.995944 -0.6577,-2.4053 0,-1.240232 0.48858,-2.01068 0.48857,-0.779843 1.306,-1.221441 0.81743,-0.441599 1.80397,-0.6577 0.99595,-0.225497 2.00129,-0.357036 1.3154,-0.169123 2.13282,-0.253684 0.82683,-0.09396 1.20265,-0.310059 0.38523,-0.216101 0.38523,-0.751656 v -0.07516 q 0,-1.390564 -0.76105,-2.161012 -0.75166,-0.770448 -2.28316,-0.770448 -1.58787,0 -2.48986,0.695282 -0.90199,0.695282 -1.26842,1.484521 l -2.10464,-0.751656 q 0.56374,-1.315398 1.50331,-2.048263 0.94897,-0.742261 2.06706,-1.033528 1.12748,-0.300662 2.21738,-0.300662 0.69529,0 1.59727,0.169123 0.91139,0.159727 1.757,0.667095 0.85501,0.507368 1.41875,1.531499 0.56374,1.024132 0.56374,2.743545 v 9.508452 h -2.21738 v -1.954306 h -0.11275 q -0.2255,0.469785 -0.75166,1.00534 -0.52616,0.535555 -1.39996,0.911383 -0.8738,0.375828 -2.13282,0.375828 z m 0.33824,-1.991889 q 1.3154,0 2.21739,-0.516764 0.91138,-0.516763 1.37177,-1.334189 0.46979,-0.817427 0.46979,-1.719414 V 84.81744 q -0.14094,0.169123 -0.62012,0.310058 -0.46978,0.13154 -1.0899,0.234893 -0.61072,0.09396 -1.19325,0.169123 -0.57314,0.06577 -0.93018,0.112748 -0.8644,0.112748 -1.61606,0.366432 -0.74226,0.244289 -1.20265,0.742261 -0.45099,0.488577 -0.45099,1.33419 0,1.155671 0.85501,1.747601 0.8644,0.582533 2.18919,0.582533 z"
         style="fill:#7a0300"
         id="path855" />
      <path
         d="m 123.52258,77.639123 v 1.879141 h -7.47898 v -1.879141 z m -5.29918,-3.457619 h 2.21738 v 13.75531 q 0,0.93957 0.27248,1.409355 0.28187,0.460389 0.71407,0.620116 0.4416,0.150332 0.93018,0.150332 0.36643,0 0.60132,-0.03758 0.2349,-0.04698 0.37583,-0.07517 l 0.451,1.991889 q -0.2255,0.08456 -0.62952,0.169123 -0.40401,0.09396 -1.02413,0.09396 -0.93957,0 -1.84156,-0.404015 -0.89259,-0.404016 -1.48452,-1.230837 -0.58253,-0.826822 -0.58253,-2.085846 z"
         style="fill:#7a0300"
         id="path857" />
      <path
         d="m 126.86744,92.070923 v -14.4318 h 2.21738 v 14.4318 z m 1.12748,-16.8371 q -0.6483,0 -1.11809,-0.441598 -0.46038,-0.441598 -0.46038,-1.061714 0,-0.620117 0.46038,-1.061715 0.46979,-0.441598 1.11809,-0.441598 0.64831,0 1.1087,0.441598 0.46978,0.441598 0.46978,1.061715 0,0.620116 -0.46978,1.061714 -0.46039,0.441598 -1.1087,0.441598 z"
         style="fill:#7a0300"
         id="path859" />
      <path
         d="m 139.00666,92.371585 q -1.9543,0 -3.42943,-0.930174 -1.46573,-0.930175 -2.29255,-2.60261 -0.81743,-1.672435 -0.81743,-3.908612 0,-2.254969 0.81743,-3.9368 0.82682,-1.681831 2.29255,-2.612005 1.47513,-0.930175 3.42943,-0.930175 1.95431,0 3.42004,0.930175 1.47512,0.930174 2.29255,2.612005 0.82682,1.681831 0.82682,3.9368 0,2.236177 -0.82682,3.908612 -0.81743,1.672435 -2.29255,2.60261 -1.46573,0.930174 -3.42004,0.930174 z m 0,-1.991889 q 1.48452,0 2.44289,-0.761052 0.95836,-0.761052 1.41875,-2.001284 0.46039,-1.240233 0.46039,-2.687171 0,-1.446939 -0.46039,-2.696567 -0.46039,-1.249629 -1.41875,-2.020076 -0.95837,-0.770448 -2.44289,-0.770448 -1.48452,0 -2.44288,0.770448 -0.95836,0.770447 -1.41875,2.020076 -0.46039,1.249628 -0.46039,2.696567 0,1.446938 0.46039,2.687171 0.46039,1.240232 1.41875,2.001284 0.95836,0.761052 2.44288,0.761052 z"
         style="fill:#7a0300"
         id="path861" />
      <path
         d="m 151.14588,83.389293 v 8.68163 h -2.21738 v -14.4318 h 2.14222 v 2.254969 h 0.18791 q 0.50737,-1.099297 1.5409,-1.766392 1.03352,-0.676491 2.66838,-0.676491 1.46573,0 2.56502,0.601325 1.0993,0.591929 1.71002,1.803975 0.61072,1.20265 0.61072,3.044208 v 9.170206 h -2.21738 v -9.019875 q 0,-1.700622 -0.8832,-2.649588 -0.8832,-0.958362 -2.42409,-0.958362 -1.06172,0 -1.89793,0.460389 -0.82683,0.46039 -1.30601,1.343586 -0.47918,0.883196 -0.47918,2.14222 z"
         style="fill:#7a0300"
         id="path863" />
    </g>
  </g>
</svg>
