<?xml version="1.0" encoding="UTF-8" standalone="no"?>
<!-- Created with Inkscape (http://www.inkscape.org/) -->

<svg
   width="63.590225mm"
   height="20.462559mm"
   viewBox="0 0 63.590225 20.46256"
   version="1.1"
   id="svg5"
   sodipodi:docname="text_angel_portrait.svg"
   inkscape:version="1.2.2 (b0a8486541, 2022-12-01)"
   xmlns:inkscape="http://www.inkscape.org/namespaces/inkscape"
   xmlns:sodipodi="http://sodipodi.sourceforge.net/DTD/sodipodi-0.dtd"
   xmlns="http://www.w3.org/2000/svg"
   xmlns:svg="http://www.w3.org/2000/svg">
  <sodipodi:namedview
     id="namedview7"
     pagecolor="#ffffff"
     bordercolor="#000000"
     borderopacity="0.25"
     inkscape:showpageshadow="2"
     inkscape:pageopacity="0.0"
     inkscape:pagecheckerboard="0"
     inkscape:deskcolor="#d1d1d1"
     inkscape:document-units="mm"
     showgrid="false"
     inkscape:zoom="3.5040966"
     inkscape:cx="139.12288"
     inkscape:cy="49.941546"
     inkscape:window-width="1920"
     inkscape:window-height="1035"
     inkscape:window-x="0"
     inkscape:window-y="25"
     inkscape:window-maximized="1"
     inkscape:current-layer="layer1" />
  <defs
     id="defs2">
    <rect
       x="103.17877"
       y="43.098064"
       width="356.27963"
       height="118.44431"
       id="rect119" />
  </defs>
  <g
     inkscape:label="Layer 1"
     inkscape:groupmode="layer"
     id="layer1"
     transform="translate(20.216858,-34.464634)">
    <g
       id="g880">
      <g
         aria-label="an  el"
         transform="matrix(0.26458333,0,0,0.26458333,-48.869466,19.252996)"
         id="text117"
         style="font-size:100px;white-space:pre;shape-inside:url(#rect119);display:inline;fill:#6ecaed">
        <path
           d="m 126.90128,136.92301 q -5.18466,0 -9.41051,-1.95312 -4.22586,-1.98864 -6.71165,-5.71733 -2.4858,-3.76421 -2.4858,-9.09091 0,-4.6875 1.84659,-7.59943 1.8466,-2.94744 4.93608,-4.61648 3.08949,-1.66903 6.81819,-2.48579 3.7642,-0.85228 7.56392,-1.34944 4.97159,-0.6392 8.06108,-0.9588 3.125,-0.35512 4.54545,-1.17188 1.45597,-0.81676 1.45597,-2.840907 v -0.284091 q 0,-5.255682 -2.87642,-8.167614 -2.84091,-2.911932 -8.62927,-2.911932 -6.00142,0 -9.41051,2.627841 -3.40909,2.627841 -4.79403,5.610796 l -7.95455,-2.840909 q 2.13069,-4.971591 5.68182,-7.741478 3.58665,-2.805397 7.8125,-3.90625 4.26137,-1.136363 8.38068,-1.136363 2.62784,0 6.03694,0.639204 3.4446,0.603694 6.64062,2.521307 3.23153,1.917614 5.36222,5.788352 2.13068,3.870739 2.13068,10.369319 V 135.6446 h -8.38068 v -7.38636 h -0.42614 q -0.85227,1.77557 -2.84091,3.79972 -1.98864,2.02414 -5.29119,3.4446 -3.30256,1.42045 -8.06108,1.42045 z m 1.27841,-7.52841 q 4.97159,0 8.38068,-1.95312 3.4446,-1.95313 5.18466,-5.04261 1.77557,-3.08949 1.77557,-6.49858 v -7.67046 q -0.53267,0.63921 -2.34375,1.17188 -1.77557,0.49716 -4.11932,0.88778 -2.30824,0.35511 -4.50994,0.63921 -2.1662,0.24858 -3.51563,0.42613 -3.26705,0.42614 -6.10795,1.38495 -2.8054,0.92329 -4.54546,2.80539 -1.70454,1.84659 -1.70454,5.04262 0,4.36789 3.23153,6.60511 3.26705,2.2017 8.27415,2.2017 z"
           style="font-family:Inter;-inkscape-font-specification:Inter"
           id="path861" />
        <path
           d="m 175.62292,102.8321 v 32.8125 h -8.38068 V 81.09915 h 8.09659 v 8.522727 h 0.71023 q 1.91761,-4.154829 5.82386,-6.676136 3.90625,-2.556818 10.08523,-2.556818 5.53977,0 9.6946,2.272727 4.15483,2.237216 6.46307,6.818182 2.30824,4.545454 2.30824,11.505678 v 34.65909 h -8.38068 v -34.0909 q 0,-6.427561 -3.33807,-10.014209 -3.33807,-3.622159 -9.16193,-3.622159 -4.01279,0 -7.1733,1.740057 -3.125,1.740057 -4.93608,5.078125 -1.81108,3.338068 -1.81108,8.096586 z"
           style="font-family:Inter;-inkscape-font-specification:Inter"
           id="path863" />
        <path
           d="m 304.88435,136.78097 q -7.88353,0 -13.60086,-3.48012 -5.68181,-3.51562 -8.7713,-9.80113 -3.05398,-6.32102 -3.05398,-14.70171 0,-8.38068 3.05398,-14.772724 3.08949,-6.427556 8.59375,-10.014204 5.53977,-3.622159 12.92613,-3.622159 4.26137,0 8.4162,1.420454 4.15483,1.420455 7.56392,4.616478 3.40909,3.160511 5.43324,8.380681 2.02414,5.220174 2.02414,12.855114 v 3.55114 h -42.04545 v -7.24432 h 33.52273 q 0,-4.616479 -1.84659,-8.238638 -1.81108,-3.622159 -5.18466,-5.71733 -3.33807,-2.09517 -7.88353,-2.09517 -5.0071,0 -8.66477,2.485795 -3.62216,2.450284 -5.57528,6.392046 -1.95313,3.941757 -1.95313,8.451707 v 4.82954 q 0,6.17898 2.13068,10.47586 2.1662,4.26136 6.00142,6.49857 3.83523,2.20171 8.91336,2.20171 3.30255,0 5.96591,-0.9233 2.69886,-0.9588 4.65198,-2.84091 1.95313,-1.91761 3.01847,-4.75852 l 8.09659,2.27273 q -1.27841,4.11932 -4.29687,7.24432 -3.01847,3.08949 -7.45739,4.82954 -4.43892,1.70455 -9.97869,1.70455 z"
           style="font-family:Inter;-inkscape-font-specification:Inter"
           id="path865" />
        <path
           d="M 348.63433,62.917332 V 135.6446 h -8.38068 V 62.917332 Z"
           style="font-family:Inter;-inkscape-font-specification:Inter"
           id="path867" />
      </g>
      <g
         aria-label="g"
         id="text285"
         style="font-size:22.9306px;font-family:Inter;-inkscape-font-specification:Inter;fill:#6ecaed;stroke-width:0.264583">
        <path
           d="m 16.478285,56.459115 q -1.392448,0 -2.394033,-0.358291 -1.001585,-0.350147 -1.669309,-0.928298 -0.65958,-0.570008 -1.050443,-1.221445 l 1.530879,-1.074872 q 0.260575,0.342005 0.65958,0.781725 0.399005,0.447863 1.091158,0.773582 0.700295,0.333862 1.832168,0.333862 1.514592,0 2.499891,-0.732868 0.985299,-0.732867 0.985299,-2.296317 v -2.540606 h -0.162859 q -0.211717,0.342005 -0.60258,0.846869 -0.382719,0.496721 -1.107444,0.887583 -0.716581,0.38272 -1.938026,0.38272 -1.514592,0 -2.719752,-0.716581 -1.197016,-0.716582 -1.897311,-2.0846 -0.692153,-1.368019 -0.692153,-3.322331 0,-1.921741 0.675867,-3.34676 0.675866,-1.433163 1.881026,-2.214888 1.205159,-0.789868 2.784895,-0.789868 1.221445,0 1.938026,0.407149 0.724724,0.399005 1.107444,0.912012 0.390862,0.504864 0.60258,0.830583 h 0.195431 v -1.986884 h 1.856597 v 12.86589 q 0,1.612308 -0.732867,2.622036 -0.724725,1.017871 -1.954313,1.490163 -1.221445,0.480435 -2.719751,0.480435 z m -0.06514,-6.872665 q 1.156301,0 1.954312,-0.529293 0.798011,-0.529293 1.213303,-1.522735 0.415291,-0.993443 0.415291,-2.377747 0,-1.351733 -0.407148,-2.38589 -0.407149,-1.034157 -1.20516,-1.620451 -0.798011,-0.586293 -1.970598,-0.586293 -1.221445,0 -2.035742,0.618865 -0.806154,0.618866 -1.213303,1.661166 -0.399005,1.0423 -0.399005,2.312603 0,1.302875 0.407148,2.30446 0.415292,0.993442 1.221446,1.56345 0.814297,0.561865 2.019456,0.561865 z"
           id="path870" />
      </g>
    </g>
  </g>
</svg>
